<svg xmlns="http://www.w3.org/2000/svg" xmlns:xlink="http://www.w3.org/1999/xlink" width="290" zoomAndPan="magnify" viewBox="0 0 217.5 95.999999" height="128" preserveAspectRatio="xMidYMid meet" version="1.0"><defs><g/><clipPath id="e5b4c306ee"><path d="M 0 13 L 57 13 L 57 71 L 0 71 Z M 0 13 " clip-rule="nonzero"/></clipPath><clipPath id="552a307c06"><path d="M 52.628906 42.324219 C 52.628906 55.730469 41.765625 66.597656 28.371094 66.597656 C 14.972656 66.597656 4.113281 55.730469 4.113281 42.324219 C 4.113281 28.917969 14.972656 18.050781 28.371094 18.050781 C 41.765625 18.050781 52.628906 28.917969 52.628906 42.324219 Z M 56.722656 42.324219 C 56.722656 57.996094 44.027344 70.699219 28.371094 70.699219 C 12.710938 70.699219 0.015625 57.996094 0.015625 42.324219 C 0.015625 26.65625 12.710938 13.953125 28.371094 13.953125 C 44.027344 13.953125 56.722656 26.65625 56.722656 42.324219 Z M 44.011719 29.605469 C 44.011719 31.226562 42.699219 32.542969 41.082031 32.542969 C 39.460938 32.542969 38.148438 31.226562 38.148438 29.605469 C 38.148438 27.984375 39.460938 26.671875 41.082031 26.671875 C 42.699219 26.671875 44.011719 27.984375 44.011719 29.605469 Z M 19.839844 44.613281 C 21.105469 49.324219 25.945312 52.121094 30.65625 50.859375 C 35.367188 49.597656 38.160156 44.753906 36.898438 40.039062 C 35.636719 35.324219 30.796875 32.527344 26.085938 33.792969 C 21.375 35.054688 18.578125 39.898438 19.839844 44.613281 Z M 15.886719 45.671875 C 17.734375 52.574219 24.820312 56.667969 31.714844 54.820312 C 38.609375 52.96875 42.703125 45.878906 40.855469 38.976562 C 39.007812 32.078125 31.917969 27.984375 25.023438 29.832031 C 18.128906 31.679688 14.039062 38.773438 15.886719 45.671875 Z M 15.886719 45.671875 " clip-rule="evenodd"/></clipPath><linearGradient x1="15" gradientTransform="matrix(1.890186, 0, 0, 1.891485, 0.0175378, 8.278792)" y1="2.999998" x2="15" gradientUnits="userSpaceOnUse" y2="32.999997" id="367b404bb8"><stop stop-opacity="1" stop-color="rgb(52.89917%, 49.398804%, 100%)" offset="0"/><stop stop-opacity="1" stop-color="rgb(52.796936%, 49.28894%, 100%)" offset="0.0078125"/><stop stop-opacity="1" stop-color="rgb(52.590942%, 49.07074%, 100%)" offset="0.015625"/><stop stop-opacity="1" stop-color="rgb(52.386475%, 48.852539%, 100%)" offset="0.0234375"/><stop stop-opacity="1" stop-color="rgb(52.182007%, 48.632812%, 100%)" offset="0.03125"/><stop stop-opacity="1" stop-color="rgb(51.976013%, 48.414612%, 100%)" offset="0.0390625"/><stop stop-opacity="1" stop-color="rgb(51.771545%, 48.196411%, 100%)" offset="0.046875"/><stop stop-opacity="1" stop-color="rgb(51.565552%, 47.97821%, 100%)" offset="0.0546875"/><stop stop-opacity="1" stop-color="rgb(51.361084%, 47.758484%, 100%)" offset="0.0625"/><stop stop-opacity="1" stop-color="rgb(51.156616%, 47.540283%, 100%)" offset="0.0703125"/><stop stop-opacity="1" stop-color="rgb(50.950623%, 47.322083%, 100%)" offset="0.078125"/><stop stop-opacity="1" stop-color="rgb(50.746155%, 47.103882%, 100%)" offset="0.0859375"/><stop stop-opacity="1" stop-color="rgb(50.540161%, 46.884155%, 100%)" offset="0.09375"/><stop stop-opacity="1" stop-color="rgb(50.335693%, 46.665955%, 100%)" offset="0.101562"/><stop stop-opacity="1" stop-color="rgb(50.131226%, 46.447754%, 100%)" offset="0.109375"/><stop stop-opacity="1" stop-color="rgb(49.925232%, 46.228027%, 100%)" offset="0.117188"/><stop stop-opacity="1" stop-color="rgb(49.720764%, 46.009827%, 100%)" offset="0.125"/><stop stop-opacity="1" stop-color="rgb(49.514771%, 45.791626%, 100%)" offset="0.132812"/><stop stop-opacity="1" stop-color="rgb(49.310303%, 45.573425%, 100%)" offset="0.140625"/><stop stop-opacity="1" stop-color="rgb(49.105835%, 45.353699%, 100%)" offset="0.148438"/><stop stop-opacity="1" stop-color="rgb(48.899841%, 45.135498%, 100%)" offset="0.15625"/><stop stop-opacity="1" stop-color="rgb(48.695374%, 44.917297%, 100%)" offset="0.164062"/><stop stop-opacity="1" stop-color="rgb(48.490906%, 44.699097%, 100%)" offset="0.171875"/><stop stop-opacity="1" stop-color="rgb(48.284912%, 44.47937%, 100%)" offset="0.179688"/><stop stop-opacity="1" stop-color="rgb(48.080444%, 44.261169%, 100%)" offset="0.1875"/><stop stop-opacity="1" stop-color="rgb(47.874451%, 44.042969%, 100%)" offset="0.195312"/><stop stop-opacity="1" stop-color="rgb(47.669983%, 43.824768%, 100%)" offset="0.203125"/><stop stop-opacity="1" stop-color="rgb(47.465515%, 43.605042%, 100%)" offset="0.210938"/><stop stop-opacity="1" stop-color="rgb(47.259521%, 43.386841%, 100%)" offset="0.21875"/><stop stop-opacity="1" stop-color="rgb(47.055054%, 43.16864%, 100%)" offset="0.226562"/><stop stop-opacity="1" stop-color="rgb(46.84906%, 42.948914%, 100%)" offset="0.234375"/><stop stop-opacity="1" stop-color="rgb(46.644592%, 42.730713%, 100%)" offset="0.242188"/><stop stop-opacity="1" stop-color="rgb(46.440125%, 42.512512%, 100%)" offset="0.25"/><stop stop-opacity="1" stop-color="rgb(46.234131%, 42.294312%, 100%)" offset="0.257812"/><stop stop-opacity="1" stop-color="rgb(46.029663%, 42.074585%, 100%)" offset="0.265625"/><stop stop-opacity="1" stop-color="rgb(45.825195%, 41.856384%, 100%)" offset="0.273438"/><stop stop-opacity="1" stop-color="rgb(45.619202%, 41.638184%, 100%)" offset="0.28125"/><stop stop-opacity="1" stop-color="rgb(45.414734%, 41.419983%, 100%)" offset="0.289063"/><stop stop-opacity="1" stop-color="rgb(45.20874%, 41.200256%, 100%)" offset="0.296875"/><stop stop-opacity="1" stop-color="rgb(45.004272%, 40.982056%, 100%)" offset="0.304688"/><stop stop-opacity="1" stop-color="rgb(44.799805%, 40.763855%, 100%)" offset="0.3125"/><stop stop-opacity="1" stop-color="rgb(44.593811%, 40.544128%, 100%)" offset="0.320312"/><stop stop-opacity="1" stop-color="rgb(44.389343%, 40.325928%, 100%)" offset="0.328125"/><stop stop-opacity="1" stop-color="rgb(44.18335%, 40.107727%, 100%)" offset="0.335938"/><stop stop-opacity="1" stop-color="rgb(43.978882%, 39.889526%, 100%)" offset="0.34375"/><stop stop-opacity="1" stop-color="rgb(43.774414%, 39.6698%, 100%)" offset="0.351563"/><stop stop-opacity="1" stop-color="rgb(43.56842%, 39.451599%, 100%)" offset="0.359375"/><stop stop-opacity="1" stop-color="rgb(43.363953%, 39.233398%, 100%)" offset="0.367188"/><stop stop-opacity="1" stop-color="rgb(43.159485%, 39.015198%, 100%)" offset="0.375"/><stop stop-opacity="1" stop-color="rgb(42.953491%, 38.795471%, 100%)" offset="0.382812"/><stop stop-opacity="1" stop-color="rgb(42.749023%, 38.577271%, 100%)" offset="0.390625"/><stop stop-opacity="1" stop-color="rgb(42.54303%, 38.35907%, 100%)" offset="0.398438"/><stop stop-opacity="1" stop-color="rgb(42.338562%, 38.139343%, 100%)" offset="0.40625"/><stop stop-opacity="1" stop-color="rgb(42.134094%, 37.921143%, 100%)" offset="0.414062"/><stop stop-opacity="1" stop-color="rgb(41.928101%, 37.702942%, 100%)" offset="0.421875"/><stop stop-opacity="1" stop-color="rgb(41.723633%, 37.484741%, 100%)" offset="0.429688"/><stop stop-opacity="1" stop-color="rgb(41.517639%, 37.265015%, 100%)" offset="0.4375"/><stop stop-opacity="1" stop-color="rgb(41.313171%, 37.046814%, 100%)" offset="0.445312"/><stop stop-opacity="1" stop-color="rgb(41.108704%, 36.828613%, 100%)" offset="0.453125"/><stop stop-opacity="1" stop-color="rgb(40.90271%, 36.610413%, 100%)" offset="0.460938"/><stop stop-opacity="1" stop-color="rgb(40.644836%, 36.329651%, 100%)" offset="0.46875"/><stop stop-opacity="1" stop-color="rgb(40.332031%, 35.98938%, 100%)" offset="0.476562"/><stop stop-opacity="1" stop-color="rgb(40.0177%, 35.646057%, 100%)" offset="0.484375"/><stop stop-opacity="1" stop-color="rgb(39.704895%, 35.30426%, 100%)" offset="0.492188"/><stop stop-opacity="1" stop-color="rgb(39.39209%, 34.962463%, 100%)" offset="0.5"/><stop stop-opacity="1" stop-color="rgb(39.079285%, 34.620667%, 100%)" offset="0.507812"/><stop stop-opacity="1" stop-color="rgb(38.766479%, 34.27887%, 100%)" offset="0.515625"/><stop stop-opacity="1" stop-color="rgb(38.453674%, 33.937073%, 100%)" offset="0.523438"/><stop stop-opacity="1" stop-color="rgb(38.139343%, 33.59375%, 100%)" offset="0.53125"/><stop stop-opacity="1" stop-color="rgb(37.826538%, 33.251953%, 100%)" offset="0.539062"/><stop stop-opacity="1" stop-color="rgb(37.513733%, 32.910156%, 100%)" offset="0.546875"/><stop stop-opacity="1" stop-color="rgb(37.200928%, 32.568359%, 100%)" offset="0.554688"/><stop stop-opacity="1" stop-color="rgb(36.888123%, 32.226562%, 100%)" offset="0.5625"/><stop stop-opacity="1" stop-color="rgb(36.573792%, 31.88324%, 100%)" offset="0.570313"/><stop stop-opacity="1" stop-color="rgb(36.260986%, 31.541443%, 100%)" offset="0.578125"/><stop stop-opacity="1" stop-color="rgb(35.948181%, 31.199646%, 100%)" offset="0.585938"/><stop stop-opacity="1" stop-color="rgb(35.635376%, 30.857849%, 100%)" offset="0.59375"/><stop stop-opacity="1" stop-color="rgb(35.322571%, 30.516052%, 100%)" offset="0.601563"/><stop stop-opacity="1" stop-color="rgb(35.009766%, 30.174255%, 100%)" offset="0.609375"/><stop stop-opacity="1" stop-color="rgb(34.695435%, 29.830933%, 100%)" offset="0.617188"/><stop stop-opacity="1" stop-color="rgb(34.382629%, 29.489136%, 100%)" offset="0.625"/><stop stop-opacity="1" stop-color="rgb(34.069824%, 29.147339%, 100%)" offset="0.632812"/><stop stop-opacity="1" stop-color="rgb(33.757019%, 28.805542%, 100%)" offset="0.640625"/><stop stop-opacity="1" stop-color="rgb(33.444214%, 28.463745%, 100%)" offset="0.648438"/><stop stop-opacity="1" stop-color="rgb(33.131409%, 28.120422%, 100%)" offset="0.65625"/><stop stop-opacity="1" stop-color="rgb(32.817078%, 27.778625%, 100%)" offset="0.664062"/><stop stop-opacity="1" stop-color="rgb(32.504272%, 27.436829%, 100%)" offset="0.671875"/><stop stop-opacity="1" stop-color="rgb(32.191467%, 27.095032%, 100%)" offset="0.679688"/><stop stop-opacity="1" stop-color="rgb(31.878662%, 26.753235%, 100%)" offset="0.6875"/><stop stop-opacity="1" stop-color="rgb(31.565857%, 26.411438%, 100%)" offset="0.695312"/><stop stop-opacity="1" stop-color="rgb(31.251526%, 26.068115%, 100%)" offset="0.703125"/><stop stop-opacity="1" stop-color="rgb(30.938721%, 25.726318%, 100%)" offset="0.710938"/><stop stop-opacity="1" stop-color="rgb(30.625916%, 25.384521%, 100%)" offset="0.71875"/><stop stop-opacity="1" stop-color="rgb(30.31311%, 25.042725%, 100%)" offset="0.726563"/><stop stop-opacity="1" stop-color="rgb(30.000305%, 24.700928%, 100%)" offset="0.734375"/><stop stop-opacity="1" stop-color="rgb(29.6875%, 24.359131%, 100%)" offset="0.742188"/><stop stop-opacity="1" stop-color="rgb(29.373169%, 24.015808%, 100%)" offset="0.75"/><stop stop-opacity="1" stop-color="rgb(29.060364%, 23.674011%, 100%)" offset="0.757812"/><stop stop-opacity="1" stop-color="rgb(28.747559%, 23.332214%, 100%)" offset="0.765625"/><stop stop-opacity="1" stop-color="rgb(28.434753%, 22.990417%, 100%)" offset="0.773438"/><stop stop-opacity="1" stop-color="rgb(28.121948%, 22.648621%, 100%)" offset="0.78125"/><stop stop-opacity="1" stop-color="rgb(27.807617%, 22.305298%, 100%)" offset="0.789062"/><stop stop-opacity="1" stop-color="rgb(27.494812%, 21.963501%, 100%)" offset="0.796875"/><stop stop-opacity="1" stop-color="rgb(27.182007%, 21.621704%, 100%)" offset="0.804688"/><stop stop-opacity="1" stop-color="rgb(26.869202%, 21.279907%, 100%)" offset="0.8125"/><stop stop-opacity="1" stop-color="rgb(26.556396%, 20.93811%, 100%)" offset="0.820312"/><stop stop-opacity="1" stop-color="rgb(26.243591%, 20.596313%, 100%)" offset="0.828125"/><stop stop-opacity="1" stop-color="rgb(25.92926%, 20.252991%, 100%)" offset="0.835938"/><stop stop-opacity="1" stop-color="rgb(25.616455%, 19.911194%, 100%)" offset="0.84375"/><stop stop-opacity="1" stop-color="rgb(25.30365%, 19.569397%, 100%)" offset="0.851563"/><stop stop-opacity="1" stop-color="rgb(24.990845%, 19.2276%, 100%)" offset="0.859375"/><stop stop-opacity="1" stop-color="rgb(24.67804%, 18.885803%, 100%)" offset="0.867188"/><stop stop-opacity="1" stop-color="rgb(24.363708%, 18.54248%, 100%)" offset="0.875"/><stop stop-opacity="1" stop-color="rgb(24.050903%, 18.200684%, 100%)" offset="0.882812"/><stop stop-opacity="1" stop-color="rgb(23.738098%, 17.858887%, 100%)" offset="0.890625"/><stop stop-opacity="1" stop-color="rgb(23.425293%, 17.51709%, 100%)" offset="0.898437"/><stop stop-opacity="1" stop-color="rgb(23.112488%, 17.175293%, 100%)" offset="0.90625"/><stop stop-opacity="1" stop-color="rgb(22.799683%, 16.833496%, 100%)" offset="0.914062"/><stop stop-opacity="1" stop-color="rgb(22.485352%, 16.490173%, 100%)" offset="0.921875"/><stop stop-opacity="1" stop-color="rgb(22.172546%, 16.148376%, 100%)" offset="0.929688"/><stop stop-opacity="1" stop-color="rgb(21.859741%, 15.80658%, 100%)" offset="0.9375"/><stop stop-opacity="1" stop-color="rgb(21.546936%, 15.464783%, 100%)" offset="0.945312"/><stop stop-opacity="1" stop-color="rgb(21.234131%, 15.122986%, 100%)" offset="0.953125"/><stop stop-opacity="1" stop-color="rgb(20.9198%, 14.781189%, 100%)" offset="0.960938"/><stop stop-opacity="1" stop-color="rgb(20.606995%, 14.437866%, 100%)" offset="0.96875"/><stop stop-opacity="1" stop-color="rgb(20.294189%, 14.096069%, 100%)" offset="0.976563"/><stop stop-opacity="1" stop-color="rgb(19.981384%, 13.754272%, 100%)" offset="0.984375"/><stop stop-opacity="1" stop-color="rgb(19.668579%, 13.412476%, 100%)" offset="0.992188"/><stop stop-opacity="1" stop-color="rgb(19.355774%, 13.070679%, 100%)" offset="1"/></linearGradient></defs><g clip-path="url(#e5b4c306ee)"><g clip-path="url(#552a307c06)"><path fill="url(#367b404bb8)" d="M 0.015625 13.953125 L 0.015625 70.699219 L 56.722656 70.699219 L 56.722656 13.953125 Z M 0.015625 13.953125 " fill-rule="nonzero"/></g></g><g fill="#ffffff" fill-opacity="1"><g transform="translate(71.010748, 59.361879)"><g><path d="M 2.640625 0 L 2.640625 -33.953125 L 8.625 -33.953125 L 8.625 -20.109375 L 22.359375 -20.109375 L 22.359375 -33.953125 L 28.34375 -33.953125 L 28.34375 0 L 22.359375 0 L 22.359375 -15.140625 L 8.625 -15.140625 L 8.625 0 Z M 2.640625 0 "/></g></g></g><g fill="#ffffff" fill-opacity="1"><g transform="translate(99.984088, 59.361879)"><g><path d="M 13.84375 0.8125 C 11.320312 0.8125 9.117188 0.269531 7.234375 -0.8125 C 5.347656 -1.894531 3.878906 -3.425781 2.828125 -5.40625 C 1.773438 -7.382812 1.25 -9.703125 1.25 -12.359375 C 1.25 -14.941406 1.726562 -17.195312 2.6875 -19.125 C 3.644531 -21.0625 4.984375 -22.554688 6.703125 -23.609375 C 8.429688 -24.660156 10.441406 -25.1875 12.734375 -25.1875 C 15.003906 -25.1875 16.960938 -24.664062 18.609375 -23.625 C 20.253906 -22.59375 21.53125 -21.132812 22.4375 -19.25 C 23.34375 -17.363281 23.796875 -15.144531 23.796875 -12.59375 C 23.796875 -11.695312 23.75 -11.023438 23.65625 -10.578125 L 6.65625 -10.578125 C 6.8125 -8.378906 7.546875 -6.640625 8.859375 -5.359375 C 10.171875 -4.085938 11.832031 -3.453125 13.84375 -3.453125 C 15.34375 -3.453125 16.664062 -3.828125 17.8125 -4.578125 C 18.96875 -5.328125 19.800781 -6.351562 20.3125 -7.65625 L 24.421875 -5.84375 C 23.722656 -3.800781 22.40625 -2.179688 20.46875 -0.984375 C 18.539062 0.210938 16.332031 0.8125 13.84375 0.8125 Z M 6.65625 -14.21875 L 18.34375 -14.21875 C 18.21875 -16.332031 17.660156 -17.976562 16.671875 -19.15625 C 15.679688 -20.332031 14.367188 -20.921875 12.734375 -20.921875 C 11.015625 -20.921875 9.625 -20.320312 8.5625 -19.125 C 7.507812 -17.9375 6.875 -16.300781 6.65625 -14.21875 Z M 6.65625 -14.21875 "/></g></g></g><g fill="#ffffff" fill-opacity="1"><g transform="translate(123.402213, 59.361879)"><g><path d="M 10.390625 10.875 C 7.960938 10.875 5.765625 10.394531 3.796875 9.4375 C 1.835938 8.476562 0.332031 7.164062 -0.71875 5.5 L 2.25 1.921875 C 3.050781 3.253906 4.128906 4.3125 5.484375 5.09375 C 6.835938 5.882812 8.363281 6.28125 10.0625 6.28125 C 12.226562 6.28125 13.941406 5.628906 15.203125 4.328125 C 16.460938 3.035156 17.09375 1.273438 17.09375 -0.953125 L 17.09375 -3.015625 L 17.046875 -3.015625 C 16.347656 -1.640625 15.375 -0.570312 14.125 0.1875 C 12.882812 0.957031 11.53125 1.34375 10.0625 1.34375 C 7.539062 1.34375 5.535156 0.515625 4.046875 -1.140625 C 2.554688 -2.804688 1.8125 -5.03125 1.8125 -7.8125 L 1.8125 -24.375 L 7.234375 -24.375 L 7.234375 -8.375 C 7.234375 -6.8125 7.628906 -5.554688 8.421875 -4.609375 C 9.222656 -3.671875 10.328125 -3.203125 11.734375 -3.203125 C 13.265625 -3.203125 14.53125 -3.722656 15.53125 -4.765625 C 16.539062 -5.804688 17.046875 -7.171875 17.046875 -8.859375 L 17.046875 -24.375 L 22.40625 -24.375 L 22.453125 -0.71875 C 22.453125 2.882812 21.367188 5.71875 19.203125 7.78125 C 17.035156 9.84375 14.097656 10.875 10.390625 10.875 Z M 10.390625 10.875 "/></g></g></g><g fill="#ffffff" fill-opacity="1"><g transform="translate(145.958317, 59.361879)"><g/></g></g><g fill="#ffffff" fill-opacity="1"><g transform="translate(153.764354, 59.361879)"><g><path d="M 15.421875 1.046875 C 12.703125 1.046875 10.359375 0.53125 8.390625 -0.5 C 6.429688 -1.539062 4.914062 -3.007812 3.84375 -4.90625 C 2.78125 -6.8125 2.25 -9.070312 2.25 -11.6875 L 2.25 -33.953125 L 8.234375 -33.953125 L 8.234375 -11.875 C 8.234375 -9.613281 8.867188 -7.765625 10.140625 -6.328125 C 11.421875 -4.890625 13.179688 -4.171875 15.421875 -4.171875 C 17.617188 -4.171875 19.347656 -4.867188 20.609375 -6.265625 C 21.878906 -7.671875 22.515625 -9.554688 22.515625 -11.921875 L 22.515625 -33.953125 L 28.546875 -33.953125 L 28.546875 -11.6875 C 28.546875 -9.070312 28.007812 -6.8125 26.9375 -4.90625 C 25.863281 -3.007812 24.34375 -1.539062 22.375 -0.5 C 20.414062 0.53125 18.097656 1.046875 15.421875 1.046875 Z M 15.421875 1.046875 "/></g></g></g></svg>